<?xml version="1.0" encoding="UTF-8"?>
<svg xmlns="http://www.w3.org/2000/svg" width="56" height="20" viewBox="0 0 56 20" fill="none">
  <!-- Greek-key (meander) repeating ornament -->
  <g stroke="#A8884F" stroke-width="1" opacity="0.55">
    <path d="M0 16 L0 4 L12 4 L12 12 L4 12 L4 8 L8 8 L8 14 L0 14"/>
    <path d="M14 4 L14 16 L26 16 L26 8 L18 8 L18 12 L22 12 L22 6 L14 6"/>
    <path d="M28 16 L28 4 L40 4 L40 12 L32 12 L32 8 L36 8 L36 14 L28 14"/>
    <path d="M42 4 L42 16 L54 16 L54 8 L46 8 L46 12 L50 12 L50 6 L42 6"/>
  </g>
</svg>
